<?xml version="1.0" encoding="utf-8"?>
<svg viewBox="374.095 163.949 377.719 115.943" xmlns="http://www.w3.org/2000/svg">
  <path style="fill: rgb(51, 51, 51); white-space: pre;"/>
  <g transform="matrix(0.18, 0, 0, 0.18, 697.759705, 222.373199)" id="9aUz2fL6BDZFsIoXl0xlj">
    <g style="" vector-effect="non-scaling-stroke">
      <g transform="matrix(1 0 0 1 1.63 -99.08)">
        <path style="stroke: none; stroke-width: 1; stroke-dasharray: none; stroke-linecap: butt; stroke-dashoffset: 0; stroke-linejoin: miter; stroke-miterlimit: 4; fill: rgb(89,206,234); fill-rule: nonzero; opacity: 1;" vector-effect="non-scaling-stroke" transform=" translate(-301.63, -200.92)" d="M 560.076 101.287 L 558.672 171.52300000000002 L 430.982 300.557 L 395.307 264.882 L 546.707 113.48000000000002 L 560.076 101.287 z M 43.188 103.199 L 44.554 171.522 L 170.73 299.025 L 204.873 264.883 L 43.188 103.199 z" stroke-linecap="round"/>
      </g>
      <g transform="matrix(1 0 0 1 0.09 177.19)">
        <path style="stroke: none; stroke-width: 1; stroke-dasharray: none; stroke-linecap: butt; stroke-dashoffset: 0; stroke-linejoin: miter; stroke-miterlimit: 4; fill: rgb(175,229,90); fill-rule: nonzero; opacity: 1;" vector-effect="non-scaling-stroke" transform=" translate(-300.09, -477.19)" d="M 464.031 524.04 L 559.246 428.82199999999995 L 559.246 499.05699999999996 L 464.03099999999995 594.2769999999999 L 300.09 430.335 L 136.15 594.275 L 40.93100000000001 499.05699999999996 L 40.93100000000001 428.82199999999995 L 136.15 524.039 L 300.09 360.1 L 464.031 524.04 z" stroke-linecap="round"/>
      </g>
      <g transform="matrix(1 0 0 1 0.09 -35.12)">
        <path style="stroke: none; stroke-width: 1; stroke-dasharray: none; stroke-linecap: butt; stroke-dashoffset: 0; stroke-linejoin: miter; stroke-miterlimit: 4; fill: rgb(231,50,163); fill-rule: nonzero; opacity: 1;" vector-effect="non-scaling-stroke" transform=" translate(-300.09, -264.88)" d="M 559.246 428.822 L 395.307 264.882 L 559.246 100.94 L 464.03099999999995 5.722999999999999 L 300.0899999999999 169.66500000000002 L 136.14599999999993 5.723000000000013 L 40.93199999999993 100.94200000000001 L 204.87299999999993 264.88300000000004 L 40.93199999999993 428.822 L 136.14999999999992 524.039 L 300.0899999999999 360.1 L 464.03099999999995 524.04 z" stroke-linecap="round"/>
      </g>
      <g transform="matrix(1 0 0 1 0 0)">
        <path style="stroke: none; stroke-width: 1; stroke-dasharray: none; stroke-linecap: butt; stroke-dashoffset: 0; stroke-linejoin: miter; stroke-miterlimit: 4; fill: rgb(29,26,28); fill-rule: nonzero; opacity: 1;" vector-effect="non-scaling-stroke" transform=" translate(-300, -300)" d="M 563.293 175.224 C 564.367 174.15099999999998 564.969 172.695 564.969 171.178 L 564.969 100.94 C 564.969 99.432 564.3580000000001 97.957 563.2890000000001 96.89 L 468.078 1.676 C 467.004 0.603 465.549 0 464.031 0 C 462.51300000000003 0 461.058 0.603 459.984 1.676 L 300.09 161.571 L 140.193 1.676 C 139.121 0.603 137.666 0 136.146 0 C 134.628 0 133.17299999999997 0.603 132.101 1.676 C 128.945 4.832 40.037000000000006 92.997 36.902 97.134 C 34.316 100.548 35.166000000000004 104.429 35.158 108.54 C 35.148 114.07600000000001 35.209 168.317 35.209 171.178 C 35.209 172.696 35.813 174.151 36.887 175.225 L 161.662 300.001 C 161.662 300.001 37.262 424.4 36.900000000000006 424.76199999999994 C 34.379000000000005 427.28399999999993 35.150000000000006 432.72099999999995 35.129000000000005 435.91599999999994 C 35.09 441.43799999999993 35.129000000000005 496.1549999999999 35.129000000000005 499.05799999999994 C 35.129000000000005 500.5759999999999 35.813 502.0319999999999 36.88700000000001 503.1039999999999 C 40.03300000000001 506.25199999999995 128.37900000000002 595.068 132.907 598.7209999999999 C 133.942 599.5559999999999 134.764 599.9979999999999 136.151 599.9979999999999 C 137.24300000000002 599.9979999999999 138.346 599.6669999999999 139.262 599.074 C 139.28 599.063 139.295 599.054 139.313 599.043 C 139.637 598.828 300.09 438.429 300.09 438.429 C 300.09 438.429 347.381 485.717 354.426 492.76399999999995 C 362.065 500.40299999999996 457.623 595.9499999999999 459.674 597.953 C 460.887 599.139 462.256 599.986 463.99199999999996 599.996 C 464.00399999999996 599.996 464.01699999999994 600 464.03099999999995 600 C 464.04499999999996 600 464.05799999999994 599.996 464.07199999999995 599.996 C 467.26899999999995 599.978 469.14799999999997 597.197 471.25199999999995 595.206 C 473.63499999999993 592.95 543.963 522.431 551.752 514.628 C 555.4689999999999 510.903 563.17 503.22700000000003 563.293 503.10400000000004 C 564.367 502.03200000000004 564.969 500.576 564.969 499.05800000000005 L 564.969 428.82300000000004 C 564.969 427.30500000000006 564.3580000000001 425.833 563.279 424.76300000000003 L 438.518 299.999 L 563.293 175.224 z M 403.4 264.882 L 444.85499999999996 223.425 L 444.85499999999996 277.475 L 430.42299999999994 291.906 L 403.4 264.882 z M 519.307 148.974 L 519.307 203.02499999999998 L 488.247 234.08599999999998 L 488.247 180.03499999999997 L 519.307 148.974 z M 481.379 240.953 L 451.723 270.608 L 451.723 216.55700000000002 L 481.379 186.90200000000002 L 481.379 240.953 z M 526.174 196.157 L 526.174 142.106 L 553.524 114.756 L 553.524 168.808 L 526.174 196.157 z M 46.654 114.757 L 74.006 142.108 L 74.006 196.159 L 46.653999999999996 168.808 L 46.653999999999996 114.757 z M 148.455 216.559 L 148.455 270.61 L 118.80100000000002 240.955 L 118.80100000000002 186.904 L 148.455 216.559 z M 111.934 234.087 L 80.87299999999999 203.02599999999998 L 80.87299999999999 148.97499999999997 L 111.934 180.03599999999997 L 111.934 234.087 z M 155.322 277.477 L 155.322 223.426 L 196.779 264.884 L 169.754 291.909 L 155.322 277.477 z M 458.309 526.41 L 458.309 580.461 L 304.523 426.678 L 305.55 373.654 L 458.309 526.41 z M 553.523 475.259 L 469.754 560.298 L 469.754 549.013 L 553.523 463.97400000000005 L 553.523 475.259 z M 553.523 454.188 L 469.754 539.227 L 469.754 526.41 L 553.523 442.638 L 553.523 454.188 z M 293.025 429.308 L 141.873 580.459 L 141.873 526.4079999999999 L 294.092 374.19 L 293.025 429.308 z M 46.654 463.271 L 130.427 548.313 L 130.427 559.598 L 46.653999999999996 474.5559999999999 L 46.653999999999996 463.271 z M 130.428 538.526 L 46.655 453.4839999999999 L 46.655 442.6359999999999 L 130.428 526.4079999999999 L 130.428 538.526 z M 46.654 484.342 L 130.427 569.385 L 130.427 580.459 L 46.653999999999996 496.68799999999993 L 46.653999999999996 484.342 z M 469.754 580.461 L 469.754 570.0840000000001 L 553.523 485.0450000000001 L 553.523 496.6880000000001 L 469.754 580.461 z M 464.031 515.946 L 304.135 356.053 C 304.123 356.04 304.106 356.032 304.094 356.019 C 303.11899999999997 355.045 301.664 354.42900000000003 300.199 354.378 C 300.172 354.377 300.144 354.38 300.09000000000003 354.377 C 300.076 354.377 300.06300000000005 354.38100000000003 300.04900000000004 354.38100000000003 C 298.42 354.37100000000004 296.951 355.067 295.91200000000003 356.184 L 136.15 515.945 L 49.025000000000006 428.82200000000006 L 208.92 268.93 C 209.994 267.857 210.59599999999998 266.401 210.59599999999998 264.884 C 210.59599999999998 263.36600000000004 209.99399999999997 261.911 208.92 260.837 L 49.025 100.942 L 136.146 13.815999999999988 L 296.042 173.711 C 298.27599999999995 175.94500000000002 301.90099999999995 175.94500000000002 304.13399999999996 173.711 L 464.031 13.816 L 551.152 100.94 L 391.26 260.835 C 389.026 263.07 389.026 266.693 391.26 268.928 L 551.152 428.822 L 464.031 515.946 z" stroke-linecap="round"/>
      </g>
    </g>
  </g>
  <g transform="matrix(1, 0, 0, 1, 531.209656, 217.873199)" style="filter: url(#SVGID_153);" id="cJSklGQ8R4Q-mKEuL7I8R">
    <linearGradient id="SVGID_134" gradientUnits="userSpaceOnUse" gradientTransform="matrix(1 0 0 1 -158 -35)" x1="0" y1="52" x2="267.81198437499995" y2="52">
      <stop offset="0" style="stop-color:#F72F3A;stop-opacity: 1"/>
      <stop offset="0.5" style="stop-color:#FFF312;stop-opacity: 1"/>
      <stop offset="1" style="stop-color:#31A8F7;stop-opacity: 1"/>
    </linearGradient>
    <filter id="SVGID_153" y="-31%" height="162%" x="-23%" width="146%">
      <feGaussianBlur in="SourceAlpha" stdDeviation="2"/>
      <feOffset dx="4" dy="4" result="oBlur"/>
      <feFlood flood-color="rgb(0,0,0)" flood-opacity="1"/>
      <feComposite in2="oBlur" operator="in"/>
      <feMerge>
        <feMergeNode/>
        <feMergeNode in="SourceGraphic"/>
      </feMerge>
    </filter>
    <path d="M -126.093 -16.397 L -118.348 -16.397 L -115.281 -15.891 L -114.685 -19.078 L -118.14 -19.495 L -126.152 -19.495 L -129.19 -19.018 L -131.096 -17.112 L -131.513 -14.61 L -131.513 0.342 L -131.096 2.903 L -129.131 4.78 L -126.152 5.137 L -118.706 5.137 L -115.698 4.78 L -113.762 2.903 L -113.345 0.342 L -113.345 -7.492 L -121.982 -7.492 L -121.982 -4.305 L -116.502 -4.305 L -116.502 -0.105 Q -116.651 0.372 -116.71 0.789 Q -116.77 1.206 -116.919 1.682 L -118.885 1.98 L -126.093 1.98 L -127.909 1.682 L -128.326 -0.224 L -128.326 -14.312 L -128.029 -15.951 Z M -119.48 -22.176 Q -116.472 -22.176 -114.03 -21.282 Q -111.587 -20.389 -109.875 -18.84 Q -108.162 -17.291 -107.239 -15.221 Q -106.315 -13.151 -106.315 -10.828 L -106.315 7.282 Q -106.315 9.605 -107.239 11.675 Q -108.162 13.745 -109.875 15.294 Q -111.587 16.843 -114.03 17.736 Q -116.472 18.63 -119.48 18.63 L -128.654 18.63 Q -131.662 18.63 -134.105 17.736 Q -136.547 16.843 -138.26 15.294 Q -139.972 13.745 -140.896 11.675 Q -141.819 9.605 -141.819 7.282 L -141.819 -10.828 Q -141.819 -13.151 -140.896 -15.221 Q -139.972 -17.291 -138.26 -18.84 Q -136.547 -20.389 -134.105 -21.282 Q -131.662 -22.176 -128.654 -22.176 Z" style="fill: url(#SVGID_134); paint-order: stroke; stroke: rgb(255, 255, 255); stroke-linejoin: round; stroke-width: 5px; white-space: pre;"/>
    <path d="M -80.367 5.108 L -80.367 -1.683 L -80.367 -14.729 L -80.367 -17.231 L -82.392 -19.138 L -85.371 -19.495 L -92.162 -19.495 L -95.646 -19.078 L -94.902 -15.831 L -92.102 -16.397 L -85.46 -16.397 L -83.673 -16.01 L -83.256 -14.432 L -83.256 -7.492 L -85.371 -7.849 L -92.162 -7.849 L -95.14 -7.402 L -97.046 -5.526 L -97.463 -3.083 L -97.463 0.401 L -97.046 2.903 L -95.14 4.78 L -92.162 5.137 L -85.639 5.137 L -83.315 4.78 Z M -83.256 1.682 L -85.579 1.98 L -91.983 1.98 L -93.859 1.682 L -94.276 -0.105 L -94.276 -2.666 L -94.038 -4.364 L -91.983 -4.662 L -85.52 -4.662 L -83.256 -4.424 L -83.256 0.074 Z M -84.03 -22.176 Q -81.022 -22.176 -78.58 -21.282 Q -76.137 -20.389 -74.425 -18.84 Q -72.712 -17.291 -71.789 -15.221 Q -70.865 -13.151 -70.865 -10.828 L -70.865 7.282 Q -70.865 9.605 -71.789 11.675 Q -72.712 13.745 -74.425 15.294 Q -76.137 16.843 -78.58 17.736 Q -81.022 18.63 -84.03 18.63 L -93.204 18.63 Q -96.212 18.63 -98.655 17.736 Q -101.097 16.843 -102.81 15.294 Q -104.522 13.745 -105.446 11.675 Q -106.369 9.605 -106.369 7.282 L -106.369 -10.828 Q -106.369 -13.151 -105.446 -15.221 Q -104.522 -17.291 -102.81 -18.84 Q -101.097 -20.389 -98.655 -21.282 Q -96.212 -22.176 -93.204 -22.176 Z" style="fill: url(#SVGID_134); paint-order: stroke; stroke: rgb(255, 255, 255); stroke-linejoin: round; stroke-width: 5px; white-space: pre;"/>
    <path d="M -48.59 -22.176 Q -45.582 -22.176 -43.14 -21.282 Q -40.697 -20.389 -38.985 -18.84 Q -37.272 -17.291 -36.349 -15.221 Q -35.425 -13.151 -35.425 -10.828 L -35.425 7.282 Q -35.425 9.605 -36.349 11.675 Q -37.272 13.745 -38.985 15.294 Q -40.697 16.843 -43.14 17.736 Q -45.582 18.63 -48.59 18.63 L -57.764 18.63 Q -60.772 18.63 -63.215 17.736 Q -65.657 16.843 -67.37 15.294 Q -69.082 13.745 -70.006 11.675 Q -70.929 9.605 -70.929 7.282 L -70.929 -10.828 Q -70.929 -13.151 -70.006 -15.221 Q -69.082 -17.291 -67.37 -18.84 Q -65.657 -20.389 -63.215 -21.282 Q -60.772 -22.176 -57.764 -22.176 Z M -53.237 -19.018 L -54.875 -19.495 L -58.777 -19.495 L -61.279 -19.078 L -63.185 -17.172 L -63.185 5.137 L -59.998 5.137 L -59.998 -16.07 Q -59.581 -16.159 -59.253 -16.189 Q -58.926 -16.219 -58.539 -16.338 L -55.143 -16.338 Q -54.815 -16.219 -54.503 -16.189 Q -54.19 -16.159 -53.862 -16.07 L -53.862 -3.441 L -50.675 -3.441 L -50.675 -16.07 L -49.394 -16.338 L -45.969 -16.338 Q -45.612 -16.219 -45.254 -16.189 Q -44.897 -16.159 -44.51 -16.07 L -44.51 5.137 L -41.352 5.137 L -41.352 -17.172 L -43.229 -19.078 L -45.731 -19.495 L -49.633 -19.495 L -51.241 -19.018 L -52.254 -16.963 Z" style="fill: url(#SVGID_134); paint-order: stroke; stroke: rgb(255, 255, 255); stroke-linejoin: round; stroke-width: 5px; white-space: pre;"/>
    <path d="M -13.14 -22.176 Q -10.132 -22.176 -7.69 -21.282 Q -5.247 -20.389 -3.535 -18.84 Q -1.822 -17.291 -0.899 -15.221 Q 0.025 -13.151 0.025 -10.828 L 0.025 7.282 Q 0.025 9.605 -0.899 11.675 Q -1.822 13.745 -3.535 15.294 Q -5.247 16.843 -7.69 17.736 Q -10.132 18.63 -13.14 18.63 L -22.314 18.63 Q -25.322 18.63 -27.765 17.736 Q -30.207 16.843 -31.92 15.294 Q -33.632 13.745 -34.556 11.675 Q -35.479 9.605 -35.479 7.282 L -35.479 -10.828 Q -35.479 -13.151 -34.556 -15.221 Q -33.632 -17.291 -31.92 -18.84 Q -30.207 -20.389 -27.765 -21.282 Q -25.322 -22.176 -22.314 -22.176 Z M -9.238 -14.729 L -9.685 -17.231 L -11.562 -19.138 L -14.57 -19.495 L -21.033 -19.495 L -24.012 -19.138 L -25.888 -17.231 L -26.335 -14.729 L -26.335 -0.581 L -25.888 1.921 L -24.012 3.797 L -21.033 4.184 L -13.527 4.184 L -10.043 3.737 L -10.787 0.521 L -13.587 0.997 L -20.825 0.997 L -22.731 0.699 L -23.148 -1.088 L -23.148 -7.224 L -9.238 -7.224 Z M -23.148 -10.351 L -23.148 -14.372 L -22.91 -16.07 L -20.825 -16.397 L -14.749 -16.397 L -12.723 -16.07 L -12.425 -14.312 L -12.425 -10.351 Z" style="fill: url(#SVGID_134); paint-order: stroke; stroke: rgb(255, 255, 255); stroke-linejoin: round; stroke-width: 5px; white-space: pre;"/>
    <path d="M 26.45 2.04 L 15.221 2.04 L 25.765 -16.874 L 24.544 -19.495 L 11.796 -19.495 L 11.796 -16.338 L 21.863 -16.338 L 11.319 2.576 L 12.302 5.137 L 26.45 5.137 Z M 22.31 -22.176 Q 25.318 -22.176 27.76 -21.282 Q 30.203 -20.389 31.915 -18.84 Q 33.628 -17.291 34.551 -15.221 Q 35.475 -13.151 35.475 -10.828 L 35.475 7.282 Q 35.475 9.605 34.551 11.675 Q 33.628 13.745 31.915 15.294 Q 30.203 16.843 27.76 17.736 Q 25.318 18.63 22.31 18.63 L 13.136 18.63 Q 10.128 18.63 7.685 17.736 Q 5.243 16.843 3.53 15.294 Q 1.818 13.745 0.894 11.675 Q -0.029 9.605 -0.029 7.282 L -0.029 -10.828 Q -0.029 -13.151 0.894 -15.221 Q 1.818 -17.291 3.53 -18.84 Q 5.243 -20.389 7.685 -21.282 Q 10.128 -22.176 13.136 -22.176 Z" style="fill: url(#SVGID_134); paint-order: stroke; stroke: rgb(255, 255, 255); stroke-linejoin: round; stroke-width: 5px; white-space: pre;"/>
    <path d="M 57.76 -22.176 Q 60.768 -22.176 63.21 -21.282 Q 65.653 -20.389 67.365 -18.84 Q 69.078 -17.291 70.001 -15.221 Q 70.925 -13.151 70.925 -10.828 L 70.925 7.282 Q 70.925 9.605 70.001 11.675 Q 69.078 13.745 67.365 15.294 Q 65.653 16.843 63.21 17.736 Q 60.768 18.63 57.76 18.63 L 48.586 18.63 Q 45.578 18.63 43.135 17.736 Q 40.693 16.843 38.98 15.294 Q 37.268 13.745 36.344 11.675 Q 35.421 9.605 35.421 7.282 L 35.421 -10.828 Q 35.421 -13.151 36.344 -15.221 Q 37.268 -17.291 38.98 -18.84 Q 40.693 -20.389 43.135 -21.282 Q 45.578 -22.176 48.586 -22.176 Z M 63.895 -14.67 L 63.478 -17.172 L 61.602 -19.078 L 58.534 -19.495 L 50.552 -19.495 L 47.514 -19.078 L 45.607 -17.172 L 45.25 -14.67 L 45.25 0.342 L 45.607 2.903 L 47.573 4.78 L 50.552 5.137 L 58.534 5.137 L 61.602 4.78 L 63.478 2.903 L 63.895 0.342 Z M 60.321 1.682 L 58.355 1.98 L 50.73 1.98 L 48.794 1.682 L 48.348 -0.105 L 48.348 -14.372 L 48.645 -16.01 L 50.73 -16.338 L 58.355 -16.338 L 60.44 -16.01 L 60.738 -14.253 L 60.738 0.014 Z" style="fill: url(#SVGID_134); paint-order: stroke; stroke: rgb(255, 255, 255); stroke-linejoin: round; stroke-width: 5px; white-space: pre;"/>
    <path d="M 98.75 -14.729 L 98.333 -17.231 L 96.427 -19.138 L 93.388 -19.495 L 85.942 -19.495 L 80.581 -18.75 L 80.581 5.137 L 83.738 5.137 L 83.738 -16.01 L 86.061 -16.397 L 93.21 -16.397 L 95.265 -16.07 L 95.563 -14.312 L 95.563 5.137 L 98.75 5.137 Z M 93.21 -22.176 Q 96.218 -22.176 98.66 -21.282 Q 101.103 -20.389 102.815 -18.84 Q 104.528 -17.291 105.451 -15.221 Q 106.375 -13.151 106.375 -10.828 L 106.375 7.282 Q 106.375 9.605 105.451 11.675 Q 104.528 13.745 102.815 15.294 Q 101.103 16.843 98.66 17.736 Q 96.218 18.63 93.21 18.63 L 84.036 18.63 Q 81.028 18.63 78.585 17.736 Q 76.143 16.843 74.43 15.294 Q 72.718 13.745 71.794 11.675 Q 70.871 9.605 70.871 7.282 L 70.871 -10.828 Q 70.871 -13.151 71.794 -15.221 Q 72.718 -17.291 74.43 -18.84 Q 76.143 -20.389 78.585 -21.282 Q 81.028 -22.176 84.036 -22.176 Z" style="fill: url(#SVGID_134); paint-order: stroke; stroke: rgb(255, 255, 255); stroke-linejoin: round; stroke-width: 5px; white-space: pre;"/>
    <path d="M 128.66 -22.176 Q 131.668 -22.176 134.11 -21.282 Q 136.553 -20.389 138.265 -18.84 Q 139.978 -17.291 140.901 -15.221 Q 141.825 -13.151 141.825 -10.828 L 141.825 7.282 Q 141.825 9.605 140.901 11.675 Q 139.978 13.745 138.265 15.294 Q 136.553 16.843 134.11 17.736 Q 131.668 18.63 128.66 18.63 L 119.486 18.63 Q 116.478 18.63 114.035 17.736 Q 111.593 16.843 109.88 15.294 Q 108.168 13.745 107.244 11.675 Q 106.321 9.605 106.321 7.282 L 106.321 -10.828 Q 106.321 -13.151 107.244 -15.221 Q 108.168 -17.291 109.88 -18.84 Q 111.593 -20.389 114.035 -21.282 Q 116.478 -22.176 119.486 -22.176 Z M 132.562 -14.729 L 132.115 -17.231 L 130.238 -19.138 L 127.23 -19.495 L 120.767 -19.495 L 117.788 -19.138 L 115.912 -17.231 L 115.465 -14.729 L 115.465 -0.581 L 115.912 1.921 L 117.788 3.797 L 120.767 4.184 L 128.273 4.184 L 131.757 3.737 L 131.013 0.521 L 128.213 0.997 L 120.975 0.997 L 119.069 0.699 L 118.652 -1.088 L 118.652 -7.224 L 132.562 -7.224 Z M 118.652 -10.351 L 118.652 -14.372 L 118.89 -16.07 L 120.975 -16.397 L 127.051 -16.397 L 129.077 -16.07 L 129.375 -14.312 L 129.375 -10.351 Z" style="fill: url(#SVGID_134); paint-order: stroke; stroke: rgb(255, 255, 255); stroke-linejoin: round; stroke-width: 5px; white-space: pre;"/>
  </g>
</svg>