<?xml version="1.0" standalone="no"?>
<!DOCTYPE svg PUBLIC "-//W3C//DTD SVG 20010904//EN"
 "http://www.w3.org/TR/2001/REC-SVG-20010904/DTD/svg10.dtd">
<svg version="1.0" xmlns="http://www.w3.org/2000/svg"
 width="300.000000pt" height="47.000000pt" viewBox="0 0 300.000000 47.000000"
 preserveAspectRatio="xMidYMid meet">
<metadata>
Created by potrace 1.10, written by Peter Selinger 2001-2011
</metadata>
<g transform="translate(0.000000,47.000000) scale(0.100000,-0.100000)"
fill="#000000" stroke="none">
<path d="M114 404 c-17 -8 -36 -26 -43 -40 -14 -32 -15 -239 0 -266 16 -30 70
-48 144 -48 83 0 132 20 148 59 l13 30 11 -30 c17 -44 69 -62 163 -57 84 5
114 19 131 61 l12 29 12 -29 c20 -47 40 -57 133 -61 79 -3 90 -2 122 20 19 13
37 34 41 48 l6 25 10 -25 c21 -51 47 -64 141 -68 79 -3 90 -2 122 20 19 13 37
34 40 47 l5 24 13 -27 c20 -46 67 -66 152 -66 86 0 135 22 146 66 l7 26 14
-30 c20 -42 68 -62 147 -62 84 0 133 20 149 59 l13 30 11 -30 c7 -19 24 -35
47 -44 47 -20 159 -19 202 1 30 14 51 46 46 67 -1 4 2 7 7 7 5 0 11 -10 13
-22 2 -12 19 -33 38 -46 31 -21 44 -23 121 -20 94 3 120 16 142 68 10 24 11
24 14 4 2 -12 15 -32 29 -45 20 -19 37 -23 107 -26 93 -5 142 13 164 57 19 38
17 230 -3 258 -26 37 -67 52 -147 52 -61 0 -80 -4 -108 -23 -19 -12 -35 -33
-37 -45 -3 -21 -5 -21 -26 10 -30 45 -60 58 -141 58 -80 0 -133 -21 -152 -59
l-12 -25 -12 27 c-17 38 -66 57 -143 57 -84 0 -134 -20 -149 -59 l-11 -30 -13
30 c-16 39 -65 59 -148 59 -84 0 -128 -18 -145 -60 l-13 -32 -13 31 c-18 42
-61 61 -139 61 -81 0 -129 -19 -154 -61 -18 -30 -19 -30 -23 -9 -1 13 -16 32
-31 44 -24 18 -43 21 -122 21 -101 0 -125 -11 -148 -65 l-10 -25 -6 25 c-4 14
-22 35 -40 47 -28 19 -48 23 -108 23 -87 0 -129 -17 -147 -61 l-13 -31 -12 30
c-18 42 -65 62 -145 62 -84 0 -134 -20 -149 -59 l-11 -30 -12 28 c-6 15 -27
35 -47 44 -45 22 -160 22 -203 1z m27 -18 c-13 -16 -14 -229 -1 -221 4 3 22 0
39 -6 35 -12 110 -5 134 14 19 14 27 73 16 105 -8 21 -15 23 -64 21 -53 -2
-54 -3 -48 -27 4 -18 2 -23 -7 -20 -7 2 -14 18 -16 35 -3 25 1 32 19 38 22 7
22 7 -3 15 -19 6 -9 9 40 10 36 1 68 2 73 1 4 0 7 5 7 11 0 7 12 0 26 -17 16
-19 27 -26 30 -18 11 27 45 61 64 66 15 4 19 2 12 -6 -5 -7 -12 -60 -16 -120
-6 -95 -5 -108 10 -114 22 -8 48 9 52 36 2 11 11 22 20 22 15 1 15 2 0 6 -28
7 -21 18 13 20 24 2 30 -1 25 -13 -3 -8 -2 -12 4 -9 6 3 10 -3 10 -14 0 -10
-4 -21 -10 -23 -5 -1 1 -8 14 -14 13 -6 32 -7 44 -3 20 8 22 16 22 86 0 54 -3
73 -10 63 -7 -11 -9 -4 -9 25 1 23 4 31 7 20 5 -20 5 -20 12 0 7 19 9 18 19
-7 12 -32 26 -35 40 -10 6 9 11 13 11 7 1 -5 5 -1 10 10 8 18 9 17 9 -7 1 -16
-5 -28 -11 -29 -10 0 -10 -2 0 -6 7 -2 12 -22 12 -44 0 -29 -3 -38 -12 -33
-10 6 -10 4 0 -7 6 -7 12 -23 12 -34 0 -12 8 -29 18 -39 31 -27 50 5 53 89 2
86 12 107 19 40 4 -42 8 -50 28 -53 16 -3 22 -10 22 -29 0 -15 2 -24 5 -21 3
3 6 42 7 87 1 44 5 81 10 81 4 0 9 -41 10 -91 3 -85 5 -93 28 -108 13 -9 21
-11 17 -5 -4 7 0 14 8 18 12 4 15 24 15 86 0 76 1 81 19 75 14 -4 23 1 32 17
15 29 27 37 49 31 14 -4 17 -19 19 -101 1 -53 7 -102 13 -109 15 -19 132 -17
148 2 24 29 8 50 -45 56 -28 3 -42 7 -32 7 9 1 17 7 17 12 0 6 5 10 11 10 5 0
7 -4 4 -10 -3 -5 -2 -10 4 -10 14 0 31 33 31 59 0 12 -5 21 -11 21 -8 0 -8 5
1 15 8 9 9 15 2 15 -6 0 -14 -5 -17 -10 -5 -8 -11 -7 -20 0 -8 7 -19 9 -25 5
-5 -3 -10 -1 -10 4 0 6 20 11 45 11 31 0 47 5 51 15 4 8 11 15 16 15 6 0 7 -8
4 -17 -4 -10 -4 -14 0 -10 4 4 14 -3 22 -15 15 -21 15 -21 44 13 18 20 27 26
24 15 -6 -16 -4 -17 9 -6 8 7 15 19 15 26 0 23 18 16 22 -8 2 -17 12 -25 38
-29 27 -5 29 -7 10 -8 -24 -2 -24 -2 -6 -16 11 -8 14 -15 7 -15 -7 0 -9 -5 -6
-10 3 -6 -1 -13 -9 -16 -9 -3 -13 -10 -10 -15 3 -5 2 -9 -3 -9 -18 0 -32 -51
-21 -81 10 -28 12 -29 73 -29 55 0 66 3 79 22 20 28 5 46 -41 50 l-31 2 30 58
c17 31 34 55 38 53 4 -2 6 9 5 25 -2 26 0 28 14 18 9 -7 26 -24 39 -38 14 -15
25 -20 28 -14 3 6 12 20 20 30 14 17 15 17 10 2 -8 -28 2 -21 25 15 12 17 18
23 14 12 -12 -36 -16 -160 -6 -187 15 -39 56 -55 115 -45 26 4 59 16 72 25 22
15 24 24 23 87 -1 88 -1 94 12 73 15 -26 38 -22 45 7 7 27 20 33 27 13 2 -7 3
-5 2 4 -2 10 1 21 6 24 5 3 9 -44 9 -110 0 -85 3 -116 13 -118 34 -4 43 -3 54
8 6 6 11 40 11 80 0 38 1 74 2 79 1 6 2 13 1 17 0 5 14 7 31 7 24 -1 27 -3 10
-6 -12 -2 -20 -8 -17 -13 3 -5 12 -7 19 -4 11 4 14 -13 15 -77 2 -85 9 -100
42 -92 17 5 19 16 19 109 0 60 4 104 10 104 5 0 6 -7 3 -17 -4 -10 -2 -14 5
-9 6 3 13 2 17 -4 11 -18 35 -10 45 15 5 14 14 25 19 25 6 0 7 -8 4 -17 -6
-16 -5 -16 10 -4 9 7 15 17 12 21 -3 5 -1 11 5 15 7 4 10 -35 10 -113 0 -137
-3 -132 88 -132 61 0 75 6 84 31 10 25 -11 39 -61 40 -26 1 -38 3 -28 6 9 2
17 9 17 14 0 6 8 8 18 5 24 -8 51 37 34 56 -6 7 -11 18 -11 23 0 6 -15 11 -32
12 -50 2 -47 13 4 13 30 0 49 5 54 15 9 16 23 9 39 -20 15 -26 37 -25 48 1 5
12 17 26 26 32 14 9 21 2 43 -38 25 -46 27 -90 4 -90 -6 0 -7 -3 -4 -7 4 -3 0
-17 -9 -31 -14 -22 -14 -25 1 -42 22 -25 56 -10 74 31 l13 30 26 -35 c26 -37
58 -47 68 -21 4 8 3 23 -2 32 -4 10 -6 21 -6 25 1 5 -2 8 -7 8 -12 0 -26 39
-22 60 2 8 9 19 17 23 8 4 14 16 15 25 0 10 6 6 14 -13 11 -25 13 -27 18 -10
2 11 5 -25 6 -80 1 -122 -3 -137 -39 -158 -50 -30 -224 -18 -205 13 3 6 0 7
-8 4 -8 -3 -18 6 -25 21 -15 32 -29 32 -43 1 -8 -16 -17 -22 -27 -19 -10 4
-13 2 -8 -5 11 -19 -30 -32 -103 -32 -84 0 -101 6 -102 34 0 11 -3 15 -6 8 -7
-19 -23 -14 -23 7 0 10 -7 22 -16 25 -19 7 -44 -10 -44 -30 0 -7 -13 -20 -30
-29 -36 -18 -110 -20 -110 -2 0 8 -3 8 -9 -2 -15 -23 -87 -2 -84 24 1 11 0 14
-3 8 -9 -20 -24 -15 -24 6 0 30 -21 37 -41 13 -9 -12 -22 -22 -29 -22 -6 0 -8
-5 -5 -10 10 -16 -42 -30 -113 -30 -74 0 -111 14 -128 48 -18 37 -23 37 -62
-6 l-39 -42 -77 0 c-85 0 -123 14 -150 55 -14 21 -20 24 -32 14 -8 -6 -14 -19
-14 -28 0 -14 -2 -14 -10 -1 -8 13 -10 13 -10 -2 0 -27 -32 -38 -110 -38 -78
0 -110 11 -110 38 0 12 -2 14 -8 4 -6 -9 -12 -6 -20 13 -6 14 -16 25 -22 25
-6 0 -16 -11 -22 -25 -8 -19 -14 -22 -20 -13 -6 10 -8 8 -8 -4 0 -26 -32 -38
-104 -38 -70 0 -121 14 -111 30 3 5 -1 10 -9 10 -8 0 -20 10 -27 22 -11 21
-12 20 -44 -18 l-33 -39 -92 -4 -91 -3 -39 42 -38 42 -18 -27 c-13 -20 -19
-23 -25 -13 -6 9 -9 7 -9 -9 0 -28 -42 -37 -135 -31 -62 4 -112 28 -100 49 3
4 1 10 -5 14 -12 7 -13 184 -1 203 4 7 14 12 21 10 7 -2 15 3 18 11 3 10 0 12
-12 8 -11 -4 -15 -3 -10 4 3 6 16 14 28 19 29 12 30 12 17 -4z m159 -6 c0 -14
-10 -17 -57 -16 l-58 1 -3 -82 -3 -83 51 0 c49 0 50 1 50 30 0 25 -4 30 -25
30 -16 0 -25 6 -25 15 0 11 11 15 40 15 l40 0 0 -48 c0 -26 -5 -53 -12 -60
-16 -16 -120 -16 -136 0 -8 8 -12 46 -12 105 0 108 4 113 98 111 42 -1 52 -5
52 -18z m283 11 c26 -10 26 -8 42 -163 5 -47 4 -58 -8 -58 -10 0 -17 15 -21
43 l-6 42 -50 1 -50 0 0 -43 c0 -35 -3 -43 -19 -43 -16 0 -18 6 -14 48 16 152
17 156 43 169 30 15 50 16 83 4z m269 -2 c3 -8 10 -8 25 2 16 10 30 11 50 3
l28 -9 3 -108 c2 -91 0 -107 -13 -107 -12 0 -15 17 -15 101 l0 100 -27 -3
c-27 -3 -28 -4 -25 -60 2 -50 0 -58 -15 -58 -16 0 -18 9 -18 58 0 55 -1 57
-27 60 l-28 3 0 -100 c0 -83 -3 -101 -15 -101 -12 0 -15 18 -15 105 0 88 3
106 18 114 23 14 69 14 74 0z m398 -6 c0 -15 -8 -17 -50 -15 l-50 4 0 -36 c0
-36 0 -36 45 -36 33 0 45 -4 45 -15 0 -11 -12 -15 -45 -15 -45 0 -45 0 -45
-35 l0 -35 56 0 c40 0 55 -3 52 -12 -3 -8 -29 -14 -71 -16 l-67 -3 0 116 0
115 65 0 c55 0 65 -3 65 -17z m306 2 c3 -8 -15 -50 -40 -94 -25 -44 -46 -83
-46 -86 0 -3 23 -5 50 -5 38 0 50 -4 50 -15 0 -20 -128 -22 -136 -2 -2 7 16
49 41 93 24 43 45 83 45 88 0 4 -20 6 -45 4 -38 -3 -45 0 -45 14 0 15 9 18 60
18 44 0 62 -4 66 -15z m332 3 c16 -16 16 -190 0 -206 -7 -7 -37 -12 -67 -12
-80 0 -91 14 -91 116 0 74 2 84 22 98 27 19 119 21 136 4z m316 -10 c22 -31
23 -208 1 -208 -11 0 -15 20 -17 98 l-3 97 -50 0 -50 0 -3 -97 c-2 -78 -6 -98
-17 -98 -12 0 -15 20 -15 109 0 124 -4 118 87 120 43 1 55 -3 67 -21z m316 5
c0 -15 -8 -17 -50 -15 l-50 4 0 -36 c0 -36 0 -36 45 -36 33 0 45 -4 45 -15 0
-11 -12 -15 -45 -15 -45 0 -45 0 -45 -35 l0 -35 55 0 c42 0 55 -3 55 -15 0
-12 -14 -15 -70 -15 l-70 0 0 115 0 115 65 0 c55 0 65 -3 65 -17z m224 -34
l29 -51 30 48 c37 61 35 60 48 47 7 -7 0 -26 -21 -60 l-32 -51 31 -48 c19 -31
27 -52 21 -58 -12 -12 -10 -13 -47 46 l-30 47 -28 -50 c-16 -27 -32 -49 -37
-49 -20 0 -16 25 12 65 l32 46 -32 49 c-28 44 -33 70 -12 70 4 0 20 -23 36
-51z m64 39 c-3 -7 -10 -13 -15 -13 -6 0 -15 -3 -19 -7 -4 -5 -2 -8 5 -8 7 0
9 -5 6 -10 -9 -14 -31 4 -38 30 -4 17 0 20 30 20 23 0 33 -4 31 -12z m-2552
-151 c8 3 14 1 14 -4 0 -5 -16 -10 -37 -11 -32 -3 -35 -1 -23 13 8 10 17 12
23 6 5 -5 16 -7 23 -4z"/>
<path d="M2650 359 c0 -5 5 -7 10 -4 6 3 10 8 10 11 0 2 -4 4 -10 4 -5 0 -10
-5 -10 -11z"/>
<path d="M250 329 c0 -5 5 -7 10 -4 6 3 10 8 10 11 0 2 -4 4 -10 4 -5 0 -10
-5 -10 -11z"/>
<path d="M2301 304 c0 -11 3 -14 6 -6 3 7 2 16 -1 19 -3 4 -6 -2 -5 -13z"/>
<path d="M2140 287 c0 -14 5 -29 10 -32 7 -4 8 3 4 22 -9 38 -14 42 -14 10z"/>
<path d="M2882 205 c0 -16 2 -22 5 -12 2 9 2 23 0 30 -3 6 -5 -1 -5 -18z"/>
<path d="M2770 201 c0 -5 5 -13 10 -16 6 -3 10 -2 10 4 0 5 -4 13 -10 16 -5 3
-10 2 -10 -4z"/>
<path d="M635 110 c-3 -5 -1 -10 4 -10 6 0 11 5 11 10 0 6 -2 10 -4 10 -3 0
-8 -4 -11 -10z"/>
<path d="M1370 110 c0 -5 5 -10 11 -10 5 0 7 5 4 10 -3 6 -8 10 -11 10 -2 0
-4 -4 -4 -10z"/>
<path d="M1695 110 c-3 -5 -1 -10 4 -10 6 0 11 5 11 10 0 6 -2 10 -4 10 -3 0
-8 -4 -11 -10z"/>
<path d="M514 362 c-6 -4 -13 -24 -16 -44 l-4 -38 49 0 49 0 -7 37 c-4 21 -9
41 -11 45 -6 10 -45 10 -60 0z m50 -28 c11 -28 7 -35 -19 -31 -14 2 -25 6 -25
10 0 4 0 14 0 22 0 20 36 19 44 -1z"/>
<path d="M530 330 c0 -5 5 -10 10 -10 6 0 10 5 10 10 0 6 -4 10 -10 10 -5 0
-10 -4 -10 -10z"/>
<path d="M1764 357 c-3 -8 -4 -45 -2 -83 l3 -69 53 -3 52 -3 0 85 0 86 -50 0
c-33 0 -52 -5 -56 -13z m86 -11 c0 -8 -61 -12 -66 -4 -3 4 11 8 30 8 20 0 36
-2 36 -4z m6 -35 c-4 -5 -7 -28 -8 -50 -1 -39 -3 -41 -32 -41 -31 0 -31 1 -33
50 l-1 50 40 0 c21 0 37 -4 34 -9z"/>
</g>
</svg>
